<svg xmlns="http://www.w3.org/2000/svg" viewBox="0 0 18.9 21.5">
  <path fill="#5388f1" d="M16.4 2.5c-.5 0-1 .2-1.4.4-.3-1-1.3-1.7-2.4-1.7-.5 0-1 .2-1.4.4C10.9.7 9.9 0 8.8 0c-1.1 0-2 .7-2.4 1.7-.3-.3-.8-.4-1.3-.4-1.4 0-2.5 1.1-2.5 2.5v2.9L1.3 7.9C.5 8.7 0 9.9 0 11v2c0 1.2.5 2.3 1.3 3.1l2.5 2.5c1.8 1.8 4.3 2.9 6.9 2.9 4.5 0 8.2-3.7 8.2-8.2V5.1c0-1.4-1.1-2.6-2.5-2.6zm1.3 10.8c0 3.8-3.1 6.9-6.9 6.9-2.3 0-4.4-.9-6-2.5l-2.5-2.5c-.6-.6-.9-1.4-.9-2.2v-2c0-.8.3-1.6.9-2.2l.3-.3v1c0 .3.3.6.6.6s.6-.3.6-.6V3.8c0-.7.6-1.3 1.3-1.3s1.3.6 1.3 1.3v1.9c0 .3.3.6.6.6s.6-.3.6-.6V2.5c0-.7.6-1.3 1.3-1.3.7 0 1.3.6 1.3 1.3v3.2c0 .3.3.6.6.6s.6-.3.6-.6V3.8c0-.7.6-1.3 1.3-1.3s1.3.6 1.3 1.3v1.9c0 .3.3.6.6.6s.6-.3.6-.6v-.6c0-.7.6-1.3 1.3-1.3.7 0 1.3.6 1.3 1.3v8.2z"/>
</svg>
