<svg xmlns="http://www.w3.org/2000/svg" viewBox="0 0 20 16" fill="#0e131b">
    <path d="M1.918 4.87c.253.179 1.015.708 2.286 1.59 1.272.88 2.246 1.559 2.922 2.035.075.052.233.165.474.34.242.175.443.316.602.424.16.107.354.228.58.362.227.134.441.234.642.3.2.068.387.101.557.101h.022c.172 0 .358-.033.559-.1.2-.067.414-.167.64-.3a12.568 12.568 0 0 0 1.183-.787c.242-.175.4-.288.474-.34l5.22-3.625a5.298 5.298 0 0 0 1.36-1.372c.364-.535.546-1.096.546-1.684 0-.49-.176-.91-.53-1.26A1.724 1.724 0 0 0 18.201.03H1.784C1.212.03.771.223.463.61.154.996 0 1.48 0 2.06c0 .468.205.976.613 1.522.41.547.844.976 1.305 1.288z"/>
    <path d="M18.87 6.07c-2.438 1.65-4.29 2.933-5.554 3.848-.424.312-.767.556-1.031.73a6.366 6.366 0 0 1-1.054.536c-.439.182-.848.273-1.227.273h-.022c-.38 0-.789-.091-1.227-.273a6.369 6.369 0 0 1-1.054-.536 26.41 26.41 0 0 1-1.032-.73C5.666 9.182 3.818 7.899 1.127 6.07A5.907 5.907 0 0 1 0 5.1v8.855c0 .49.175.91.524 1.26.35.35.77.525 1.26.525h16.417c.49 0 .91-.175 1.26-.525.35-.35.524-.77.524-1.26V5.1a6.15 6.15 0 0 1-1.115.97z"/>
</svg>