<svg xmlns="http://www.w3.org/2000/svg" xmlns:xlink="http://www.w3.org/1999/xlink" width="405" height="324">
  <defs>
    <path id="a" d="M79.05 2552.201a260.276 260.276 0 0 1-3.987-50.825l-65.062-1.173v-.004c.04-2.55.04-5.06.04-7.532l73.942-.667c.04 3.178 0 6.355-.04 9.533a331.827 331.827 0 0 1-4.893 50.668m-201.824 171.073c63.772-37.314 110.772-99.186 126.812-172.415 5.291 39.119 17.493 76.193 35.377 109.977a336.25 336.25 0 0 1-18.583 28.615c-51.193 2.031-99.843 13.94-143.606 33.823m-36.773 19.264l-.453-1.073a278.052 278.052 0 0 0 8.157-3.408 382.279 382.279 0 0 0-7.704 4.48m41.742 59.487a296.987 296.987 0 0 1 29.715-15.1 350.773 350.773 0 0 1-29.715 15.1m-14.104 5.976l-5.79-13.713 8.521 12.61c-.91.37-1.82.741-2.73 1.103"/>
    <path id="b" d="M5.065 2551.533A331.302 331.302 0 0 1 2.064 2500l9.114.164a260.555 260.555 0 0 1-6.113 51.369m182.337 168.634c-39.706-15.865-83.003-25.59-128.412-27.872a340.404 340.404 0 0 1-17.611-29.22c19.696-33.589 33.685-70.713 40.672-110.18 12.235 67.684 50.8 126.85 105.351 167.272M205.598 2816a358.983 358.983 0 0 1-55.72-31.73c18.573 6.817 36.19 15.273 52.654 25.166L229 2768.795 205.598 2816"/>
    <path id="c" d="M40.207 2670C20.893 2634.246 7.715 2595.01 2 2553.61A269.783 269.783 0 0 0 8.432 2500l70.263 1.245A270.033 270.033 0 0 0 83 2555.031c-7.352 41.183-22.07 79.921-42.793 114.969"/>
    <path id="d" d="M-151.021 2744.657a368.393 368.393 0 0 1 29.108-15.005 275.11 275.11 0 0 1-29.108 15.005m374.558 27.45l9.017-18.658a275.205 275.205 0 0 1-49.598-30.035A371.067 371.067 0 0 1 237 2750.9l-13.463 21.206m-310.72 22.143c43.123-24.9 80.368-58.721 109.076-98.93a388.204 388.204 0 0 1 35.79.2c23.508 35.823 53.617 67.082 88.666 92.067-31.793-11.972-66.456-18.87-102.937-19.53a317.832 317.832 0 0 0-5.802-.052c-44.749 0-87.032 9.42-124.793 26.245m-49.675 7.463L-168 2754.995a372.24 372.24 0 0 1 9.264-5.8l21.878 52.517m9.516 14.288l-.984-1.478a355.568 355.568 0 0 0 11.388-4.946 291.577 291.577 0 0 0-10.404 6.424"/>
    <path id="e" d="M-130.032 2816l-8.408-12.993-21.56-53.319a373.611 373.611 0 0 1 7.603-4.616 268.337 268.337 0 0 0 28.684-15.22c43.185-20.49 91.195-32.76 141.713-34.852-28.29 40.815-64.993 75.146-107.489 100.422a288.51 288.51 0 0 0-29.321 15.557 345.15 345.15 0 0 1-11.222 5.021"/>
    <path id="f" d="M195.133 2816a283.022 283.022 0 0 0-49.937-25.992C111.124 2764.225 81.853 2731.968 59 2695c43.065 2.356 84.127 12.4 121.783 28.787 14.891 12.017 31.048 22.431 48.217 30.987l-8.766 19.249L195.133 2816"/>
  </defs>
  <use fill="#95c3de" opacity=".1" transform="translate(168 -2492)" xlink:href="#a"/>
  <use fill="#95c3de" opacity=".1" transform="translate(168 -2492)" xlink:href="#b"/>
  <use fill="#5daad2" opacity=".1" transform="translate(168 -2492)" xlink:href="#c"/>
  <use fill="#95c3de" opacity=".1" transform="translate(168 -2492)" xlink:href="#d"/>
  <use fill="#5daad2" opacity=".1" transform="translate(168 -2492)" xlink:href="#e"/>
  <use fill="#5daad2" opacity=".1" transform="translate(168 -2492)" xlink:href="#f"/>
</svg>
