<svg xmlns="http://www.w3.org/2000/svg" viewBox="0 0 59 58">
  <path fill="#7fb4f8" fill-rule="evenodd" d="M43.6 41.3c3.8-4.5 5.8-10.3 5.8-16.2.1-13.7-11-25-24.7-25.1-6.5 0-12.8 2.6-17.4 7.3-7.1 7.2-9.2 17.8-5.4 27.2S14.7 50 24.8 50.1c5.5 0 10.8-1.8 15.1-5.2l16 13.1 3.2-4-15.5-12.7zm.7-16.3c-.2 10.8-9 19.4-19.7 19.3S5.2 35.4 5.2 24.6 14 5.2 24.8 5.2c10.9.1 19.6 8.9 19.5 19.8z" clip-rule="evenodd"/>
  <path fill="#5388f1" fill-rule="evenodd" d="M33.9 18.3h-5.3v-2.5c0-.4-.3-.7-.7-.7h-6.7c-.4 0-.7.3-.7.7v2.5h-5.3c-.6 0-1.2.5-1.2 1.2v12.4c0 .6.5 1.2 1.2 1.2h18.7c.6 0 1.2-.5 1.2-1.2V19.5c0-.3-.1-.6-.3-.8-.3-.3-.5-.4-.9-.4zM22 16.5h5.1v1.7H22v-1.7z" clip-rule="evenodd"/>
</svg>
