<svg xmlns="http://www.w3.org/2000/svg" viewBox="0 0 885.7 747.4">
    <style>
        .st0{opacity:.3271;fill-rule:evenodd;clip-rule:evenodd;fill:#81b6f8;enable-background:new}
    </style>
    <path d="M353.9 0h170.8c0 278.1 119.5 475.1 358.6 591-34.2 92.7-56.9 144.8-68.3 156.4C530.4 596.8 376.7 347.6 353.9 0z" class="st0"/>
    <path d="M529.4 0H358.6c0 278.1-119.5 475.1-358.6 591 34.2 92.7 56.9 144.8 68.3 156.4C352.9 596.8 506.6 347.6 529.4 0z" class="st0"/>
    <path d="M22.3 564.5c17 30.1 45.4 80.1 85.1 150.3 235.8-138.8 462.4-132 679.7 20.6 61.6-76.3 94.5-122.4 98.6-138.2C616.2 421.9 328.4 411 22.3 564.5z" class="st0"/>
</svg>