<svg xmlns="http://www.w3.org/2000/svg" viewBox="0 0 25 25">
    <path fill="#0e131b" d="M.012 19.73c-.053.406.07.76.37 1.06l3.52 3.495c.16.176.366.327.622.45.256.124.508.203.754.238.018 0 .071.005.16.014.087.008.202.013.343.013.336 0 .878-.057 1.628-.172.75-.115 1.667-.398 2.752-.848 1.086-.45 2.316-1.125 3.692-2.026 1.377-.9 2.841-2.136 4.394-3.707 1.235-1.218 2.258-2.384 3.07-3.496.811-1.112 1.464-2.14 1.958-3.085.494-.945.865-1.801 1.112-2.57.247-.767.415-1.43.503-1.985.088-.556.123-.993.106-1.311a22.38 22.38 0 0 1-.027-.53 2.575 2.575 0 0 0-.238-.755 1.985 1.985 0 0 0-.45-.622L20.761.371C20.514.124 20.231 0 19.914 0a.987.987 0 0 0-.609.199 1.84 1.84 0 0 0-.45.49l-2.831 5.376a1.29 1.29 0 0 0-.133.927c.07.335.22.617.45.847l1.297 1.298a.442.442 0 0 1 .093.172.67.67 0 0 1 .04.198c-.071.371-.23.795-.477 1.272-.212.423-.538.94-.98 1.549-.44.609-1.067 1.31-1.878 2.105-.794.812-1.5 1.444-2.118 1.894-.617.45-1.133.781-1.548.993-.414.212-.732.34-.953.384l-.33.066a.63.63 0 0 1-.172-.04.442.442 0 0 1-.172-.092l-1.509-1.536a1.62 1.62 0 0 0-1.112-.424c-.3 0-.538.053-.714.159h-.026L.674 18.856c-.371.23-.591.52-.662.874z"/>
</svg>