<svg xmlns="http://www.w3.org/2000/svg" viewBox="0 0 137 189">
    <path fill="#82b6f8" transform="translate(-949 -245)" d="M951.547 275.7a205.885 205.885 0 0 1-1.72-30.77l5.225.098a161.707 161.707 0 0 1-3.505 30.671m104.55 100.684c-22.767-9.473-47.593-15.28-73.63-16.642a205.084 205.084 0 0 1-10.098-17.446 203.418 203.418 0 0 0 23.321-65.783c7.016 40.411 29.128 75.736 60.407 99.87m10.433 57.227a203.842 203.842 0 0 1-31.949-18.945 174.05 174.05 0 0 1 30.192 15.025l15.176-24.266-13.419 28.186"/>
    <path fill="#5388f1" transform="translate(-949 -245)" d="M972.362 342.3a203.396 203.396 0 0 1-20.822-66.596 161.71 161.71 0 0 0 3.505-30.674l38.292.713a162.037 162.037 0 0 0 2.346 30.774 203.417 203.417 0 0 1-23.321 65.783"/>
    <path fill="#5388f1" transform="translate(-949 -245)" d="M1064.765 429.688a174.05 174.05 0 0 0-30.191-15.026 205.649 205.649 0 0 1-52.114-54.922c26.037 1.362 50.863 7.168 73.63 16.641a161.32 161.32 0 0 0 29.151 17.913l-5.3 11.128-15.176 24.266"/>
</svg>
