<svg xmlns="http://www.w3.org/2000/svg" viewBox="0 0 144 192">
    <path fill="#82b6f8" transform="translate(-855 -240)" d="M995.69 276.512a162.037 162.037 0 0 1-2.346-30.775l-38.292-.71v-.002c.024-1.544.024-3.065.024-4.561l43.518-.404c.023 1.924 0 3.848-.024 5.772a206.538 206.538 0 0 1-2.88 30.68M876.91 380.104c37.533-22.596 65.196-60.061 74.637-104.405a203.396 203.396 0 0 0 20.822 66.596 204.345 204.345 0 0 1-10.937 17.327c-30.131 1.23-58.765 8.44-84.523 20.482m-21.642 11.658l-.267-.65a161.166 161.166 0 0 0 4.801-2.064 223.503 223.503 0 0 0-4.534 2.714m24.567 36.019a172.962 172.962 0 0 1 17.488-9.143 204.286 204.286 0 0 1-17.488 9.143m-8.301 3.618l-3.408-8.303 5.015 7.636c-.536.224-1.071.448-1.607.667"/>
    <path  fill="#5388f1" transform="translate(-855 -240)" d="M972.362 342.3a203.396 203.396 0 0 1-20.822-66.596 161.71 161.71 0 0 0 3.505-30.674l38.292.713a162.037 162.037 0 0 0 2.346 30.774 203.417 203.417 0 0 1-23.321 65.783"/>
    <path fill="#5388f1" transform="translate(-855 -240)" d="M873.134 430.74l-5.015-7.636-12.859-31.335c1.5-.92 3.011-1.826 4.534-2.713a160.868 160.868 0 0 0 17.109-8.945c25.757-12.04 54.391-19.251 84.522-20.481a205.514 205.514 0 0 1-64.11 59.016 172.962 172.962 0 0 0-17.488 9.142 207.398 207.398 0 0 1-6.693 2.951"/>
</svg>
