<svg xmlns="http://www.w3.org/2000/svg" id="Layer_1" viewBox="0 0 72 38">
  <style>
    .st0{fill:#80b5f7}.st1{fill:#5488f1}
  </style>
  <path id="Shape" d="M23 36.5H0V35c0-6.1 5.4-11.5 11.5-11.5S23 28.9 23 35v1.5zm-19.9-3h16.7c-.8-3.9-4.3-7-8.4-7s-7.5 3.1-8.3 7z" class="st0"/>
  <circle id="Oval" cx="11.5" cy="16" r="6" class="st0"/>
  <path d="M72 36.5H49V35c0-6.1 5.4-11.5 11.5-11.5C66.9 23.5 72 28.6 72 35v1.5zm-19.9-3h16.7c-.7-4.1-4-7-8.4-7-3.9 0-7.5 3.1-8.3 7z" class="st0"/>
  <circle cx="60.5" cy="16" r="6" class="st0"/>
  <path d="M53.5 38h-35v-2c0-9.5 7.5-17 17.2-17 9.8 0 17.8 7.6 17.8 17v2zm-30.9-4h26.7c-1-6.2-6.8-11-13.7-11-6.7 0-12 4.6-13 11z" class="st1"/>
  <circle cx="36" cy="8.5" r="8.5" class="st1"/>
</svg>
