<?xml version="1.0" encoding="utf-8"?>
<!-- Generator: Adobe Illustrator 23.0.3, SVG Export Plug-In . SVG Version: 6.00 Build 0)  -->
<svg version="1.1" id="Layer_1" xmlns="http://www.w3.org/2000/svg" xmlns:xlink="http://www.w3.org/1999/xlink" x="0px" y="0px"
	 viewBox="0 0 18.4 18.5" style="enable-background:new 0 0 18.4 18.5;" xml:space="preserve">
<style type="text/css">
	.st0{fill:#FFFFFF;}
</style>
<path class="st0" d="M10.1,11.1h4.5c-0.8,2.2-2.9,3.8-5.4,3.8c-3,0-5.6-2.5-5.7-5.5c-0.1-3.3,2.5-6,5.7-6C10.7,3.4,12,4,13,4.9
	c0.2,0.2,0.6,0.2,0.8,0l1.7-1.6c0.3-0.2,0.3-0.7,0-0.9C14,1,11.8,0,9.4,0C4.3-0.1,0,4.1,0,9.2s4.1,9.3,9.2,9.3
	c4.9,0,8.9-3.9,9.2-8.7c0-0.1,0-2.1,0-2.1h-8.3C9.8,7.7,9.5,8,9.5,8.3v2.3C9.5,10.9,9.8,11.1,10.1,11.1z"/>
</svg>
