<svg xmlns="http://www.w3.org/2000/svg" xmlns:xlink="http://www.w3.org/1999/xlink"  viewBox="0 0 804 128">
    <path fill="#001f37" transform="translate(-558 -452)" d="M574.792 510.394c.213 7.012 1.383 9.14 3.188 9.776 1.594.53 3.402.639 4.89.639 1.064 0 1.595.424 1.595.955 0 .747-.85.958-2.125.958-6.06 0-10.417-.32-12.117-.32-.85 0-5.313.32-10.096.32-1.277 0-2.127-.106-2.127-.958 0-.53.639-.955 1.489-.955 1.274 0 2.974-.109 4.252-.425 2.444-.636 2.763-3.08 2.869-10.946l.85-53.565c0-1.808.638-3.083 1.594-3.083 1.169 0 2.444 1.38 4.038 2.975 1.169 1.169 15.2 15.516 28.803 28.803 6.377 6.27 18.81 19.024 20.194 20.299h.424l-.955-40.176c-.108-5.524-.958-7.119-3.19-7.968-1.381-.53-3.614-.53-4.889-.53-1.17 0-1.489-.428-1.489-.962 0-.741.959-.85 2.339-.85 4.888 0 9.884.214 11.903.214 1.064 0 4.572-.213 9.14-.213 1.275 0 2.128.108 2.128.85 0 .533-.533.96-1.594.96-.959 0-1.703 0-2.872.317-2.55.744-3.294 2.338-3.4 7.44l-1.063 56.965c0 2.02-.745 2.87-1.489 2.87-1.594 0-2.869-.954-3.824-1.914-5.846-5.416-17.536-16.578-27.315-26.038-10.203-9.778-20.088-20.724-21.893-22.32h-.32l1.062 36.882"/>
    <path fill="#001f37" transform="translate(-558 -452)" d="M647.07 488.498c0-15.408 10.837-35.388 39.215-35.388 23.596 0 38.26 13.073 38.26 33.794 0 20.727-15.089 36.988-39.215 36.988-27.21 0-38.26-19.344-38.26-35.394zm63.565 1.7c0-19.98-12.014-32.308-27.108-32.308-10.417 0-22.643 5.53-22.643 27.845 0 18.6 10.631 33.269 28.276 33.269 6.592 0 21.475-3.083 21.475-28.806z"/>
    <path fill="#001f37" transform="translate(-558 -452)" d="M741.987 480.525c0-13.708 0-16.258-.106-19.13-.214-3.082-1.063-4.038-4.038-4.888-.744-.213-2.338-.316-3.721-.316-.956 0-1.592-.32-1.592-.961 0-.636.742-.85 2.125-.85 4.888 0 10.84.214 12.753.214 3.188 0 11.69-.214 14.561-.214 5.952 0 12.754.53 17.747 3.827 2.658 1.808 6.59 6.377 6.59 12.437 0 6.693-3.826 12.645-12.966 19.982 8.29 10.201 14.88 18.383 20.513 24.016 5.207 5.21 8.5 5.635 9.99 5.954.958.211 1.488.211 2.232.211.742 0 1.17.53 1.17.955 0 .747-.64.959-1.808.959h-8.927c-5.207 0-7.76-.531-10.203-1.808-4.039-2.017-7.546-6.271-12.754-13.284-3.721-4.89-7.651-10.948-8.82-12.329-.534-.53-1.064-.638-1.703-.638l-8.395-.211c-.425 0-.745.21-.745.741v1.278c0 8.395.106 15.408.53 19.235.32 2.658.748 4.36 3.617 4.783 1.38.21 3.4.319 4.568.319.745 0 1.17.53 1.17.955 0 .64-.745.959-1.914.959-5.419 0-13.178-.32-14.559-.32-1.808 0-7.76.32-11.48.32-1.167 0-1.806-.32-1.806-.959 0-.424.32-.955 1.489-.955 1.38 0 2.444-.108 3.293-.32 1.914-.422 2.444-2.124 2.764-4.782.425-3.827.425-10.945.425-19.235v-15.945zm11.903 7.01c0 .952.214 1.27.85 1.59 2.022.639 4.785.85 7.121.85 3.722 0 4.996-.32 6.59-1.488 2.87-2.016 6.058-5.948 6.058-13.385 0-12.75-8.715-16.042-14.242-16.042-2.339 0-4.569.105-5.527.316-.636.214-.85.53-.85 1.277z"/>
    <path fill="#001f37" transform="translate(-558 -452)" d="M823.295 459.909l-13.923.32c-5.421.108-7.654.744-9.034 2.763a10.603 10.603 0 0 0-1.594 3.082c-.214.745-.425 1.17-1.064 1.17-.636 0-.85-.53-.85-1.489 0-1.486 1.808-10.201 2.02-10.945.213-1.17.532-1.7 1.063-1.7.744 0 1.7.742 4.038 1.061 2.763.32 6.271.425 9.351.425h37.943c2.978 0 4.997-.214 6.377-.425 1.489-.211 2.233-.425 2.552-.425.636 0 .745.533.745 1.916 0 1.911-.214 8.607-.214 10.943-.106.958-.32 1.489-.85 1.489-.744 0-.958-.425-1.064-1.808l-.105-.953c-.214-2.341-2.658-5.105-11.054-5.21l-11.795-.214v36.563c0 8.29.105 15.408.53 19.344.317 2.55.85 4.252 3.614 4.674 1.274.211 3.4.32 4.782.32 1.064 0 1.489.53 1.489.955 0 .638-.745.958-1.808.958-6.166 0-12.434-.32-15.092-.32-2.125 0-8.501.32-12.223.32-1.169 0-1.805-.32-1.805-.958 0-.425.32-.956 1.488-.956 1.38 0 2.55-.108 3.294-.32 1.914-.421 2.444-2.124 2.761-4.782.428-3.827.428-10.945.428-19.235v-36.563"/>
    <path fill="#001f37" transform="translate(-558 -452)" d="M926.603 483.82c.214 0 .533-.106.533-.637v-1.91c0-13.712-.108-17.006-.214-19.878-.21-3.082-1.063-4.038-4.038-4.888-.744-.213-2.338-.316-3.613-.316-1.064 0-1.594-.32-1.594-.961 0-.636.639-.85 2.019-.85 4.996 0 11.584.214 14.028.214 2.233 0 8.398-.214 12.012-.214 1.38 0 2.019.214 2.019.85 0 .641-.639.96-1.703.96-.741 0-1.594.104-2.763.317-2.444.425-3.188 1.7-3.4 4.888-.213 2.872-.213 5.422-.213 19.13v15.945c0 8.29 0 15.408.425 19.343.319 2.55.852 4.252 3.721 4.675 1.275.21 3.294.319 4.783.319.955 0 1.488.53 1.488.955 0 .64-.744.959-1.913.959-6.058 0-12.223-.32-14.775-.32-2.125 0-8.713.32-12.329.32-1.275 0-2.019-.32-2.019-.959 0-.424.425-.955 1.489-.955 1.488 0 2.552-.108 3.402-.32 1.91-.422 2.444-2.124 2.763-4.782.425-3.827.425-10.734.425-19.024v-6.907c0-.32-.32-.53-.533-.53H891.32c-.322 0-.638.102-.638.53v6.907c0 8.29.105 15.197.53 19.132.32 2.55.85 4.252 3.613 4.675 1.278.21 3.402.319 4.783.319 1.063 0 1.488.53 1.488.955 0 .64-.744.959-1.913.959-6.057 0-12.54-.32-15.197-.32-2.125 0-8.29.32-12.012.32-1.167 0-1.805-.32-1.805-.959 0-.424.319-.955 1.488-.955 1.38 0 2.444-.108 3.294-.32 1.914-.422 2.444-2.124 2.763-4.782.425-3.827.425-10.945.425-19.235v-15.945c0-13.708 0-16.258-.105-19.13-.214-3.082-1.064-4.038-4.038-4.888-.745-.213-2.339-.316-3.722-.316-.955 0-1.594-.32-1.594-.961 0-.636.744-.85 2.022-.85 4.993 0 11.159.214 13.708.214 2.233 0 8.716-.214 12.434-.214 1.278 0 1.914.214 1.914.85 0 .641-.53.96-1.7.96-.744 0-1.594.104-2.658.317-2.55.425-3.293 1.7-3.507 4.888-.211 2.872-.211 6.166-.211 19.877v1.911c0 .53.316.636.638.636h35.283"/>
    <path fill="#001f37" transform="translate(-558 -452)" d="M970.191 461.395c-.211-3.082-1.06-4.038-4.038-4.888-.744-.213-2.338-.316-3.719-.316-.955 0-1.594-.32-1.594-.961 0-.636.744-.85 2.125-.85 4.89 0 10.842.214 12.647.214 4.677 0 10.843-.214 14.031-.214 16.897 0 19.872 8.718 19.872 13.5 0 7.013-5.208 12.434-10.52 15.834 7.65 2.446 17.216 8.929 17.216 19.557 0 9.67-7.652 19.66-24.868 19.66-1.064 0-4.252-.102-7.44-.316-3.189-.106-6.483-.214-7.971-.214-1.064 0-3.083.108-5.313.108-2.233.106-4.572.212-6.485.212-1.17 0-1.808-.32-1.808-.959 0-.424.322-.955 1.489-.955 1.383 0 2.446-.108 3.293-.32 1.917-.422 2.447-2.124 2.766-4.782.423-3.827.423-10.945.423-19.235v-15.945c0-13.708 0-16.258-.106-19.13zm12.223 20.626c0 .741.32.85.639.953.85.213 2.233.319 4.357.319 3.083 0 5.738-.32 7.332-1.592 2.444-1.914 4.252-5.208 4.252-9.569 0-6.058-3.613-13.608-11.69-13.608-1.277 0-3.082 0-4.037.217-.64.105-.853.533-.853 1.486zm0 26.558c0 5.948.32 7.755 3.295 8.924 2.448.955 4.574 1.06 6.7 1.06 4.998 0 11.486-2.759 11.486-12.746 0-4.142-1.809-11.26-8.827-16.04-1.915-1.38-4.466-2.337-8.08-2.337h-4.043c-.317 0-.531.108-.531.638z"/>
    <path fill="#001f37" transform="translate(-558 -452)" d="M1028.12 488.498c0-15.408 10.837-35.388 39.215-35.388 23.596 0 38.26 13.073 38.26 33.794 0 20.727-15.089 36.988-39.215 36.988-27.21 0-38.26-19.344-38.26-35.394zm63.567 1.7c0-19.98-12.012-32.308-27.11-32.308-10.418 0-22.644 5.53-22.644 27.845 0 18.6 10.628 33.269 28.28 33.269 6.59 0 21.474-3.083 21.474-28.806z"/>
    <path fill="#001f37" transform="translate(-558 -452)" d="M1122.184 480.525c0-13.708.105-16.258-.108-19.13-.212-3.188-1.061-4.038-4.036-4.888-.744-.213-2.341-.316-3.613-.316-1.061 0-1.597-.32-1.597-.961 0-.636.639-.85 2.02-.85 4.995 0 11.27.214 14.03.214 2.338 0 8.61-.214 12.009-.214 1.383 0 2.019.214 2.019.85 0 .641-.53.96-1.486.96-1.064 0-1.594.104-2.763.317-2.444.425-3.189 1.7-3.402 4.888-.214 2.872-.214 5.422-.214 19.13v12.648c0 13.181 2.552 18.283 7.123 21.896 4.144 3.294 8.607 3.613 11.796 3.613 4.04 0 8.823-1.169 12.54-4.782 5.21-4.89 5.423-12.753 5.423-22.002v-11.373c0-13.708-.108-16.258-.214-19.13-.214-3.082-.955-4.038-3.93-4.888-.747-.213-2.341-.316-3.402-.316-1.064 0-1.594-.32-1.594-.961 0-.636.636-.85 1.913-.85 4.78 0 11.051.214 11.157.214 1.066 0 7.335-.214 10.948-.214 1.275 0 1.91.214 1.91.85 0 .641-.53.96-1.59.96-1.064 0-1.595.104-2.764.317-2.552.425-3.188 1.7-3.402 4.888-.106 2.872-.211 5.422-.211 19.13v9.67c0 10.102-1.064 20.728-8.93 27.21-6.587 5.527-13.708 6.485-19.768 6.485-4.888 0-14.559-.211-21.363-6.166-4.782-4.144-8.501-10.84-8.501-23.912v-13.287"/>
    <path fill="#001f37" transform="translate(-558 -452)" d="M1210.719 510.394c.214 7.012 1.383 9.14 3.19 9.776 1.595.53 3.4.639 4.889.639 1.064 0 1.594.424 1.594.955 0 .747-.85.958-2.125.958-6.057 0-10.414-.32-12.114-.32-.853 0-5.316.32-10.098.32-1.275 0-2.125-.106-2.125-.958 0-.53.636-.955 1.486-.955 1.277 0 2.977-.109 4.252-.425 2.444-.636 2.763-3.08 2.872-10.946l.85-53.565c0-1.808.635-3.083 1.59-3.083 1.173 0 2.445 1.38 4.042 2.975 1.166 1.169 15.194 15.516 28.8 28.803 6.377 6.27 18.814 19.024 20.194 20.299h.425l-.956-40.176c-.105-5.524-.955-7.119-3.188-7.968-1.38-.53-3.613-.53-4.89-.53-1.17 0-1.487-.428-1.487-.962 0-.741.956-.85 2.339-.85 4.888 0 9.884.214 11.9.214 1.064 0 4.572-.213 9.14-.213 1.278 0 2.128.108 2.128.85 0 .533-.53.96-1.594.96-.958 0-1.7 0-2.87.317-2.551.744-3.293 2.338-3.399 7.44l-1.066 56.965c0 2.02-.742 2.87-1.486 2.87-1.597 0-2.869-.954-3.824-1.914-5.846-5.416-17.539-16.578-27.317-26.038-10.201-9.778-20.086-20.724-21.894-22.32h-.32l1.062 36.882"/>
    <path fill="#001f37" transform="translate(-558 -452)" d="M1294.27 480.525c0-13.708 0-16.258-.109-19.13-.214-3.082-1.063-4.038-4.038-4.888-.744-.213-2.341-.316-3.721-.316-.956 0-1.592-.32-1.592-.961 0-.636.744-.85 2.125-.85 4.888 0 10.84.214 13.495.214 2.871 0 9.567-.214 15.2-.214 11.692 0 27.42 0 37.623 10.31 4.677 4.676 8.821 12.222 8.821 22.959 0 11.37-4.888 19.98-10.2 25.19-4.256 4.25-14.137 10.626-31.354 10.626-3.402 0-7.443-.32-11.161-.533-3.72-.317-7.121-.53-9.46-.53-1.06 0-3.083.107-5.313.107-2.23.106-4.571.212-6.482.212-1.17 0-1.808-.32-1.808-.959 0-.424.32-.955 1.486-.955 1.386 0 2.447-.108 3.3-.32 1.91-.422 2.44-2.124 2.76-4.782.427-3.827.427-10.945.427-19.235v-15.945zm12.536 9.993c0 9.567.111 16.474.217 18.277.105 2.233.319 5.424 1.06 6.376 1.17 1.703 4.887 3.614 12.22 3.614 8.5 0 14.77-1.484 20.4-6.16 6.059-4.997 7.972-13.075 7.972-22.43 0-11.475-4.57-18.915-8.713-22.528-8.608-7.651-18.809-8.607-26.14-8.607-1.912 0-4.994.214-5.739.636-.85.32-1.166.745-1.166 1.806-.11 3.082-.11 10.525-.11 17.643z"/>
    <path fill="#001f37" transform="translate(-558 -452)" d="M675.444 556.178c0-7.538 0-8.908-.114-10.45-.116-1.654-.401-2.457-2.056-2.686a16.665 16.665 0 0 0-1.715-.114l-.399-.398c0-.288.227-.401.8-.401 2.283 0 5.54.113 5.825.113.343 0 10.85.058 11.993 0 .969-.055 1.884-.227 2.283-.282l.686-.23.227.457c0 .343-.285.91-.398 2.283-.058.459-.172 2.628-.285 3.199l-.457.512c-.285 0-.401-.227-.401-.626 0-.343-.056-1.143-.285-1.713-.343-.8-.855-1.143-3.598-1.486-.857-.113-6.682-.169-7.253-.169-.23 0-.287.17-.287.512v13.192c0 .343 0 .512.287.512.629 0 7.253 0 8.396-.114 1.198-.113 1.94-.169 2.455-.683.343-.34.572-.631.741-.631.172 0 .285.116.285.404 0 .282-.285 1.082-.398 2.681-.114.972-.227 2.798-.227 3.144 0 .396-.116.91-.46.91-.226 0-.342-.169-.342-.454 0-.456 0-.974-.227-1.602-.172-.686-.629-1.256-2.571-1.483-1.37-.172-6.738-.227-7.596-.227-.285 0-.343.169-.343.343v4.054c0 1.655-.056 7.308 0 8.277.116 3.26 1.03 3.885 5.996 3.885 1.315 0 3.714 0 5.028-.512 1.312-.573 1.998-1.428 2.283-3.373.114-.567.23-.742.515-.742.285 0 .343.402.343.742 0 .346-.401 3.656-.686 4.688-.343 1.253-.858 1.253-2.798 1.253-3.769 0-6.683-.116-8.739-.171-2.111-.114-3.426-.114-4.167-.114-.114 0-1.085 0-2.17.056-.971.058-2.114.113-2.914.113-.512 0-.8-.113-.8-.396 0-.171.117-.401.402-.401.456 0 1.085-.172 1.541-.227.971-.174 1.085-1.145 1.315-2.573.285-1.998.285-5.825.285-10.505v-8.567"/>
    <path fill="#001f37" transform="translate(-558 -452)" d="M717.59 560.062l-7.996-13.018c-1.142-1.887-2.114-3.26-3.827-3.771-.8-.23-1.829-.343-2.111-.343-.288 0-.46-.283-.46-.457 0-.23.23-.343.858-.343 1.428 0 5.482.113 5.881.113.46 0 3.199-.113 4.912-.113.686 0 .858.113.858.343a.45.45 0 0 1-.457.457c-.343 0-.971 0-1.37.113-.46.056-.63.401-.63.742 0 .46.229 1.087.514 1.602 2.114 3.827 3.999 7.308 6.625 11.476 1.486-2.112 6.796-10.278 7.253-11.304.398-.687.514-1.143.514-1.716 0-.34-.343-.628-.857-.8-.515-.113-1.085-.113-1.37-.113a.45.45 0 0 1-.457-.457c0-.23.23-.343.855-.343 1.885 0 3.999.113 4.455.113.457 0 2.513-.113 4.226-.113.573 0 .8.113.8.343 0 .174-.172.457-.515.457-.398 0-1.14.058-1.713.23-1.428.456-2.34 1.712-3.769 3.826l-8.052 11.764c.97 1.486 9.538 15.588 10.623 16.902.8 1.027 1.37 1.713 2.856 2.114.683.172 1.428.285 1.713.285.285 0 .398.17.398.402 0 .227-.227.396-.683.396-3.086 0-5.482 0-8.225-.114-1.314-.055-1.541-.169-1.541-.398l.285-.399c.285-.058.742-.573.285-1.372-2.742-4.738-5.482-9.423-8.51-14.332l-7.709 12.735c-.456.797-.628 1.655-.628 2.17 0 .456.343.685.8.799.285.055.686.113.913.113a.45.45 0 0 1 .457.457c0 .227-.285.34-.628.34-1.199 0-4.511-.168-4.968-.168-.4 0-2.914.169-4.568.169-.399 0-.457-.17-.457-.34 0-.228.113-.458.399-.458.4 0 1.142-.113 1.884-.285 1.486-.4 2.513-1.314 4.112-3.769l9.024-13.935"/>
    <path fill="#001f37" transform="translate(-558 -452)" d="M748.641 556.178c0-7.538 0-8.908-.113-10.45-.114-1.654-.399-2.457-2.054-2.686a16.665 16.665 0 0 0-1.715-.114l-.399-.398c0-.288.227-.401.8-.401 2.283 0 5.54.113 5.825.113.34 0 10.85.058 11.993 0 .969-.055 1.882-.227 2.283-.282l.686-.23.227.457c0 .343-.285.91-.398 2.283-.058.459-.172 2.628-.285 3.199l-.46.512c-.285 0-.398-.227-.398-.626 0-.343-.058-1.143-.285-1.713-.343-.8-.858-1.143-3.598-1.486-.857-.113-6.682-.169-7.253-.169-.23 0-.287.17-.287.512v13.192c0 .343 0 .512.287.512.629 0 7.253 0 8.394-.114 1.198-.113 1.942-.169 2.457-.683.34-.34.57-.631.741-.631.172 0 .285.116.285.404 0 .282-.285 1.082-.398 2.681-.116.972-.23 2.798-.23 3.144 0 .396-.113.91-.456.91-.227 0-.343-.169-.343-.454 0-.456 0-.974-.227-1.602-.172-.686-.631-1.256-2.571-1.483-1.37-.172-6.738-.227-7.596-.227-.285 0-.343.169-.343.343v4.054c0 1.655-.056 7.308 0 8.277.116 3.26 1.03 3.885 5.996 3.885 1.315 0 3.714 0 5.028-.512 1.312-.573 1.998-1.428 2.283-3.373.114-.567.227-.742.515-.742.285 0 .343.402.343.742 0 .346-.401 3.656-.686 4.688-.343 1.253-.855 1.253-2.798 1.253-3.771 0-6.683-.116-8.739-.171-2.111-.114-3.426-.114-4.167-.114-.114 0-1.085 0-2.172.056-.97.058-2.112.113-2.912.113-.514 0-.8-.113-.8-.396 0-.171.117-.401.4-.401.458 0 1.087-.172 1.543-.227.971-.174 1.085-1.145 1.312-2.573.285-1.998.285-5.825.285-10.505v-8.567"/>
    <path fill="#001f37" transform="translate(-558 -452)" d="M783.02 574.276c-4.912-4.228-6.11-9.763-6.11-14.392 0-3.255 1.198-8.908 5.653-13.25 3.028-2.911 7.597-5.194 15.306-5.194 1.998 0 4.854.169 7.308.57 1.885.34 3.484.686 5.142.744.512 0 .625.227.625.512 0 .399-.113.972-.227 2.74-.058 1.6-.058 4.284-.113 4.97-.058.742-.285 1.027-.573 1.027-.34 0-.398-.34-.398-1.027 0-1.885-.8-3.824-2.112-4.854-1.77-1.486-5.426-2.684-9.882-2.684-6.453 0-9.536 1.713-11.307 3.37-3.713 3.426-4.51 7.765-4.51 12.677 0 9.31 7.366 17.589 18.103 17.589 3.77 0 6.28-.285 8.28-2.283 1.084-1.088 1.77-3.141 1.942-4.057.114-.512.172-.686.512-.686.23 0 .457.346.457.686 0 .343-.684 4.571-1.198 6.229-.285.91-.399 1.082-1.257 1.425-2.056.8-5.825 1.085-9.079 1.085-7.538 0-12.621-1.768-16.562-5.197"/>
    <path fill="#001f37" transform="translate(-558 -452)" d="M822.994 556.18c0-7.539 0-8.909-.114-10.45-.116-1.541-.398-2.457-2.056-2.687a16.663 16.663 0 0 0-1.713-.113l-.401-.399c0-.288.23-.401.8-.401 2.285 0 5.31.113 5.77.113.453 0 3.597-.113 5.08-.113.573 0 .858.113.858.401l-.457.399c-.343 0-.63 0-1.256.113-1.314.23-1.6 1.088-1.713 2.687-.116 1.541-.116 2.911-.116 10.45v6.796c0 7.023 1.541 9.934 3.713 11.88 2.455 2.224 4.625 2.623 7.48 2.623 3.083 0 6.052-1.37 7.768-3.423 2.341-2.8 2.853-6.8 2.853-11.767v-6.11c0-7.538-.055-8.908-.113-10.449-.059-1.541-.34-2.457-1.998-2.687a16.613 16.613 0 0 0-1.713-.113l-.402-.399c0-.288.23-.401.803-.401 2.225 0 5.139.113 5.424.113.343 0 2.74-.113 4.225-.113.573 0 .8.113.8.401l-.399.399c-.343 0-.63 0-1.256.113-1.372.288-1.657 1.088-1.77 2.687-.117 1.541-.059 2.911-.059 10.45v5.193c0 5.258-.686 11.138-4.682 14.564-3.656 3.141-7.538 3.542-10.507 3.542-1.658 0-6.91-.113-10.452-3.426-2.455-2.285-4.397-5.653-4.397-12.734v-7.14"/>
    <path fill="#001f37" transform="translate(-558 -452)" d="M880.837 564.74c0 4.68 0 8.507.23 10.505.171 1.428.401 2.343 1.942 2.573.684.114 1.827.227 2.283.227.344 0 .402.23.402.401 0 .227-.23.396-.8.396-2.742 0-5.939-.169-6.224-.169-.23 0-3.713.17-5.2.17-.57 0-.796-.114-.796-.397 0-.171.113-.346.398-.346.457 0 1.03-.113 1.486-.226 1.027-.23 1.312-1.201 1.484-2.63.227-1.997.227-5.824.227-10.504v-20.389l-7.25.114c-3.142.055-4.342.4-5.084 1.541-.57.858-.628 1.201-.8 1.544-.113.399-.285.457-.512.457-.116 0-.343-.114-.343-.401 0-.513 1.027-4.852 1.085-5.255.113-.283.343-.911.514-.911.34 0 .856.399 2.225.57 1.428.172 3.37.227 3.94.227h18.962c1.655 0 2.798-.113 3.597-.227.742-.113 1.199-.23 1.428-.23.227 0 .227.288.227.57 0 1.487-.171 4.97-.171 5.543 0 .399-.227.628-.457.628-.227 0-.34-.171-.398-.857l-.058-.512c-.172-1.486-1.257-2.574-6.052-2.687l-6.285-.114v20.39"/>
    <path fill="#001f37" transform="translate(-558 -452)" d="M911.782 564.747c0 4.68 0 8.506.23 10.504.17 1.428.342 2.344 1.828 2.573.742.114 1.827.227 2.283.227.285 0 .399.23.399.402 0 .227-.227.396-.797.396-2.798 0-6.055-.17-6.282-.17-.288 0-3.428.17-4.97.17-.512 0-.8-.114-.8-.396 0-.172.117-.402.402-.402.456 0 1.084-.113 1.541-.227.971-.23 1.143-1.145 1.314-2.573.227-1.998.285-5.825.285-10.504v-8.568c0-7.538 0-8.908-.113-10.449-.116-1.655-.515-2.4-1.6-2.631a9.327 9.327 0 0 0-1.54-.17l-.402-.398c0-.288.23-.401.8-.401 1.655 0 4.795.113 5.083.113.227 0 3.484-.113 5.025-.113.57 0 .8.113.8.401l-.401.399c-.343 0-.684 0-1.256.113-1.37.288-1.658.971-1.771 2.687-.058 1.541-.058 2.911-.058 10.45v8.567"/>
    <path fill="#001f37" transform="translate(-558 -452)" d="M942.966 572.511c2.911-6.508 9.48-23.07 10.565-26.554.227-.744.457-1.43.457-1.826 0-.402-.172-.858-.686-1.032-.57-.17-1.143-.17-1.713-.17-.285 0-.57-.168-.57-.398 0-.288.343-.401 1.14-.401 2 0 4.284.113 4.912.113.285 0 2.454-.113 3.94-.113.515 0 .8.113.8.343 0 .23-.172.457-.57.457-.343 0-1.486 0-2.4.572-.686.457-1.485 1.14-2.797 4.453-.573 1.372-3.027 7.198-5.598 13.136-3.083 7.081-5.31 12.336-6.453 14.733-1.37 2.911-1.655 3.655-2.17 3.655-.57 0-.913-.63-1.884-2.969l-12.334-29.756c-1.143-2.74-1.829-3.252-3.484-3.655-.8-.17-1.657-.17-1.942-.17-.286 0-.399-.282-.399-.456 0-.285.512-.343 1.312-.343 2.399 0 5.255.113 5.883.113.515 0 2.74-.113 4.682-.113.913 0 1.37.113 1.37.343 0 .23-.172.457-.512.457-.573 0-1.373.058-1.83.23-.511.229-.57.511-.57.854 0 .629.629 2.115 1.37 4.055l9.481 24.442"/>
    <path fill="#001f37" transform="translate(-558 -452)" d="M971.741 556.178c0-7.538 0-8.908-.113-10.45-.114-1.654-.399-2.457-2.054-2.686a16.715 16.715 0 0 0-1.715-.114l-.399-.398c0-.288.227-.401.797-.401 2.286 0 5.543.113 5.825.113.343 0 10.853.058 11.993 0 .972-.055 1.885-.227 2.286-.282l.684-.23.23.457c0 .343-.286.91-.402 2.283-.055.459-.169 2.628-.282 3.199l-.46.512c-.285 0-.398-.227-.398-.626 0-.343-.058-1.143-.288-1.713-.34-.8-.855-1.143-3.595-1.486-.857-.113-6.682-.169-7.253-.169-.23 0-.287.17-.287.512v13.192c0 .343 0 .512.287.512.626 0 7.253 0 8.394-.114 1.2-.113 1.942-.169 2.454-.683.343-.34.573-.631.744-.631.172 0 .285.116.285.404 0 .282-.285 1.082-.398 2.681-.116.972-.23 2.798-.23 3.144 0 .396-.113.91-.456.91-.227 0-.343-.169-.343-.454 0-.456 0-.974-.227-1.602-.172-.686-.629-1.256-2.571-1.483-1.37-.172-6.738-.227-7.596-.227-.285 0-.343.169-.343.343v4.054c0 1.655-.056 7.308 0 8.277.116 3.26 1.03 3.885 5.996 3.885 1.315 0 3.714 0 5.028-.512 1.312-.573 1.998-1.428 2.283-3.373.114-.567.23-.742.515-.742.285 0 .34.402.34.742 0 .346-.398 3.656-.683 4.688-.343 1.253-.858 1.253-2.798 1.253-3.771 0-6.683-.116-8.739-.171-2.114-.114-3.426-.114-4.17-.114-.11 0-1.085 0-2.17.056-.968.058-2.11.113-2.91.113-.515 0-.8-.113-.8-.396 0-.171.113-.401.398-.401.46 0 1.085-.172 1.544-.227.969-.174 1.085-1.145 1.312-2.573.285-1.998.285-5.825.285-10.505v-8.567"/>
    <path fill="#001f37" transform="translate(-558 -452)" d="M1022.562 578.157c-.687-.34-.742-.515-.742-1.827 0-2.399.23-4.339.285-5.139 0-.514.114-.8.401-.8.285 0 .457.172.457.57 0 .4 0 1.086.171 1.772.8 3.542 4.566 4.795 7.94 4.795 4.967 0 7.535-2.797 7.535-6.453 0-3.481-1.885-5.139-6.34-8.45l-2.283-1.714c-5.424-4.057-7.195-7.026-7.195-10.394 0-5.708 4.51-9.137 11.136-9.137 1.998 0 3.996.282 5.2.573.968.227 1.366.227 1.765.227.404 0 .517.055.517.343 0 .23-.23 1.826-.23 5.139 0 .741-.057 1.084-.398 1.084-.343 0-.401-.227-.457-.628-.06-.57-.456-1.882-.746-2.396-.338-.573-1.996-2.4-6.506-2.4-3.656 0-6.686 1.827-6.686 5.255 0 3.083 1.544 4.852 6.511 8.222l1.428.971c6.113 4.168 8.224 7.538 8.224 11.708 0 2.854-1.084 5.939-4.682 8.28-2.114 1.373-5.252 1.713-7.994 1.713-2.341 0-5.255-.34-7.311-1.314"/>
    <path fill="#001f37" transform="translate(-558 -452)" d="M1058.084 556.178c0-7.538 0-8.908-.114-10.45-.116-1.654-.401-2.457-2.056-2.686a16.713 16.713 0 0 0-1.713-.114l-.401-.398c0-.288.227-.401.8-.401 2.283 0 5.54.113 5.825.113.343 0 10.85.058 11.993 0 .971-.055 1.884-.227 2.283-.282l.686-.23.23.457c0 .343-.288.91-.404 2.283-.055.459-.169 2.628-.282 3.199l-.46.512c-.282 0-.396-.227-.396-.626 0-.343-.058-1.143-.29-1.713-.338-.8-.855-1.143-3.595-1.486-.857-.113-6.682-.169-7.253-.169-.23 0-.285.17-.285.512v13.192c0 .343 0 .512.285.512.626 0 7.253 0 8.396-.114 1.198-.113 1.943-.169 2.452-.683.346-.34.573-.631.744-.631.172 0 .288.116.288.404 0 .282-.288 1.082-.401 2.681-.114.972-.227 2.798-.227 3.144 0 .396-.114.91-.46.91-.226 0-.34-.169-.34-.454 0-.456 0-.974-.23-1.602-.171-.686-.628-1.256-2.57-1.483-1.37-.172-6.736-.227-7.594-.227-.287 0-.343.169-.343.343v4.054c0 1.655-.058 7.308 0 8.277.114 3.26 1.027 3.885 5.994 3.885 1.315 0 3.714 0 5.026-.512 1.314-.573 2-1.428 2.285-3.373.116-.567.23-.742.515-.742.285 0 .343.402.343.742 0 .346-.398 3.656-.686 4.688-.343 1.253-.855 1.253-2.795 1.253-3.772 0-6.686-.116-8.74-.171-2.113-.114-3.428-.114-4.17-.114-.113 0-1.084 0-2.169.056-.971.058-2.114.113-2.914.113-.512 0-.8-.113-.8-.396 0-.171.114-.401.402-.401.456 0 1.085-.172 1.544-.227.968-.174 1.082-1.145 1.312-2.573.285-1.998.285-5.825.285-10.505v-8.567"/>
    <path fill="#001f37" transform="translate(-558 -452)" d="M1099.707 543.1c.628-1.598.858-1.88 1.201-1.88.515 0 .686.684 1.198 1.768.916 2.056 8.966 22.102 12.049 29.469 1.829 4.339 3.199 4.964 4.284 5.31a7.05 7.05 0 0 0 2 .285c.285 0 .626.114.626.401 0 .283-.568.396-1.14.396-.742 0-4.456 0-7.94-.113-.968-.056-1.768-.056-1.768-.34l.34-.344c.286-.113.8-.515.46-1.314l-4.514-11.136c-.113-.227-.171-.285-.456-.285h-11.595c-.224 0-.398.114-.512.399l-2.856 7.767c-.456 1.199-.741 2.397-.741 3.255 0 .974.858 1.314 1.713 1.314h.456c.399 0 .512.169.512.401 0 .283-.282.396-.741.396-1.199 0-3.938-.169-4.511-.169-.515 0-3.025.17-5.083.17-.629 0-.969-.114-.969-.397l.454-.4c.346 0 1.087-.059 1.489-.114 2.283-.288 3.254-2.001 4.223-4.456l11.821-30.384zm5.598 20.223l.17-.343-4.968-13.313c-.285-.742-.568-.742-.858 0l-4.68 13.313.17.343z"/>
    <path fill="#001f37" transform="translate(-558 -452)" d="M1130.194 556.18c0-7.539 0-8.909-.114-10.45-.113-1.655-.398-2.457-2.056-2.687a16.56 16.56 0 0 0-1.71-.113l-.404-.399c0-.288.23-.401.8-.401 2.285 0 5.656.113 5.94.113.513 0 4.741-.113 6.283-.113 3.198 0 6.738.288 9.367 2.114 1.253.913 3.483 3.252 3.483 6.625 0 3.597-1.485 7.081-6.17 11.077 4.114 5.139 7.596 9.536 10.51 12.563 2.681 2.743 4.339 3.202 5.595 3.37.971.172 1.483.172 1.774.172.282 0 .454.23.454.402 0 .282-.285.396-1.199.396h-3.143c-2.853 0-4.11-.283-5.366-.97-2.17-1.142-3.999-3.483-6.854-7.139-2.112-2.626-4.337-5.766-5.427-7.078-.224-.23-.338-.288-.683-.288l-6.396-.113c-.23 0-.343.113-.343.4v1.141c0 4.685 0 8.451.227 10.45.172 1.427.46 2.343 2.001 2.572.684.114 1.771.227 2.225.227.343 0 .404.23.404.402 0 .227-.23.396-.803.396-2.74 0-5.938-.17-6.168-.17-.055 0-3.426.17-4.97.17-.509 0-.797-.114-.797-.396 0-.172.116-.402.401-.402.457 0 1.083-.113 1.542-.227.968-.23 1.085-1.145 1.314-2.573.283-1.998.283-5.825.283-10.504v-8.568zm4.341 4.116c0 .285.114.456.343.628.741.399 3.31.744 5.533.744 1.203 0 2.569-.058 3.766-.86 1.714-1.14 3.028-3.712 3.028-7.424 0-6.057-3.31-9.542-8.674-9.542-1.485 0-3.083.172-3.597.288-.23.114-.399.285-.399.57z"/>
    <path fill="#001f37" transform="translate(-558 -452)" d="M1172.283 574.276c-4.915-4.228-6.113-9.763-6.113-14.392 0-3.255 1.198-8.908 5.653-13.25 3.028-2.911 7.6-5.194 15.306-5.194 2 0 4.856.169 7.308.57 1.888.34 3.487.686 5.142.744.514 0 .628.227.628.512 0 .399-.114.972-.227 2.74-.058 1.6-.058 4.284-.113 4.97-.061.742-.288 1.027-.573 1.027-.343 0-.401-.34-.401-1.027 0-1.885-.8-3.824-2.112-4.854-1.77-1.486-5.426-2.684-9.879-2.684-6.456 0-9.536 1.713-11.307 3.37-3.716 3.426-4.513 7.765-4.513 12.677 0 9.31 7.366 17.589 18.103 17.589 3.77 0 6.282-.285 8.28-2.283 1.087-1.088 1.773-3.141 1.942-4.057.114-.512.172-.686.515-.686.227 0 .454.346.454.686 0 .343-.684 4.571-1.196 6.229-.287.91-.4 1.082-1.256 1.425-2.059.8-5.825 1.085-9.082 1.085-7.538 0-12.621-1.768-16.56-5.197"/>
    <path fill="#001f37" transform="translate(-558 -452)" d="M1245.49 564.747c0 4.68.058 8.506.283 10.504.174 1.428.287 2.344 1.829 2.573.686.114 1.826.227 2.23.227.338 0 .454.23.454.402 0 .227-.285.396-.858.396-2.74 0-5.938-.17-6.223-.17-.227 0-3.484.17-4.968.17-.572 0-.8-.114-.8-.396 0-.172.114-.402.402-.402.454 0 1.026-.113 1.483-.227 1.03-.23 1.198-1.2 1.37-2.628.23-1.998.23-5.654.23-10.336v-4.854l-.288-.287h-20.957l-.287.287v4.854c0 4.682 0 8.393.23 10.391.17 1.428.342 2.344 1.828 2.573.742.114 1.827.227 2.283.227.285 0 .399.23.399.402 0 .227-.227.396-.797.396-2.8 0-5.997-.17-6.226-.17-.285 0-3.482.17-5.026.17-.514 0-.8-.114-.8-.396 0-.172.117-.402.4-.402.458 0 1.087-.113 1.54-.227.974-.23 1.09-1.145 1.315-2.573.285-1.998.285-5.825.285-10.504v-8.568c0-7.538 0-8.908-.113-10.449-.114-1.655-.396-2.457-2.054-2.687a16.665 16.665 0 0 0-1.715-.113l-.399-.399c0-.288.23-.401.8-.401 2.285 0 5.482.113 5.767.113.23 0 3.426-.113 4.967-.113.573 0 .802.113.802.401l-.4.399c-.347 0-.684 0-1.257.113-1.373.288-1.655.971-1.769 2.687-.06 1.541-.06 3.025-.06 10.563v1.03c0 .284.116.284.287.284h20.957c.174 0 .287 0 .287-.285v-1.03c0-7.537-.058-9.02-.113-10.562-.116-1.655-.343-2.457-2-2.687a16.663 16.663 0 0 0-1.714-.113l-.398-.399c0-.288.227-.401.8-.401 2.225 0 5.482.113 5.709.113.285 0 3.483-.113 4.97-.113.57 0 .855.113.855.401l-.457.399c-.343 0-.628 0-1.256.113-1.315.288-1.6.971-1.713 2.687-.114 1.541-.114 2.911-.114 10.45v8.567"/>
</svg>
