<svg fill="#0e131b" viewBox="0 0 30.9 34.9">
	<path d="M8.2 17.9c0-.9-.7-1.5-1.8-1.5-.5 0-.8 0-1 .1v3c.2 0 .4.1.8.1 1.2 0 2-.7 2-1.7zM15.3 16.4c-.5 0-.8 0-1 .1v6.7h.8c2.1 0 3.5-1.1 3.5-3.6-.1-2.1-1.3-3.2-3.3-3.2z"/>
	<path d="M29 12.5h-.8V8.4c0-.2-.1-.3-.2-.4L21.3.3l-.1-.1s-.1 0-.1-.1H4.2C3.4 0 2.8.6 2.8 1.4v11.1H2c-1.1 0-2 .9-2 2v10.2c0 1.1.9 2 2 2h.8v7c0 .8.6 1.4 1.4 1.4h22.6c.8 0 1.4-.6 1.4-1.4v-7h.8c1.1 0 2-.9 2-2V14.4c-.1-1-1-1.9-2-1.9zM4.2 1.4H20v7c0 .4.3.7.7.7h6v3.4H4.2V1.4zM21 19.6c0 2-.7 3.3-1.7 4.1-1.1.9-2.7 1.3-4.7 1.3-1.2 0-2-.1-2.6-.2v-10c.8-.1 2-.2 3.1-.2 1.9 0 3.2.3 4.2 1.1s1.7 2.1 1.7 3.9zM3.1 24.9v-10c.7-.1 1.7-.2 3.1-.2 1.4 0 2.4.3 3.1.8.7.5 1.1 1.4 1.1 2.4s-.3 1.9-.9 2.4c-.8.7-2 1.1-3.3 1.1h-.8v3.7l-2.3-.2zm23.7 8.3H4.2v-6.6h22.6v6.6zm1.9-16.6h-3.9V19h3.7v1.9h-3.7V25h-2.3V14.7h6.2v1.9z"/>
</svg>