<svg xmlns="http://www.w3.org/2000/svg" viewBox="0 0 238 73">
    <path fill="#82b6f8" transform="translate(-850 -359)" d="M859.8 389.066a215.329 215.329 0 0 1 17.108-8.955 160.807 160.807 0 0 1-17.109 8.955m220.148 16.365l5.3-11.128a161.319 161.319 0 0 1-29.152-17.913 216.906 216.906 0 0 1 31.765 16.393l-7.913 12.648M897.32 418.646a205.515 205.515 0 0 0 64.11-59.016 228.503 228.503 0 0 1 13.455-.15c2.537.047 5.065.14 7.58.269a205.649 205.649 0 0 0 52.114 54.922c-18.686-7.142-39.06-11.257-60.501-11.65a184.07 184.07 0 0 0-3.41-.032c-26.301 0-51.153 5.62-73.348 15.657m-29.196 4.458L849.82 395.23c1.795-1.18 3.61-2.331 5.445-3.46l12.859 31.334m5.593 8.517l-.578-.882a211.41 211.41 0 0 0 6.693-2.95 170.951 170.951 0 0 0-6.115 3.832"/>
    <path fill="#5388f1" transform="translate(-850 -359)" d="M873.134 430.74l-5.015-7.636-12.859-31.335c1.5-.92 3.011-1.826 4.534-2.713a160.868 160.868 0 0 0 17.109-8.945c25.757-12.04 54.391-19.251 84.522-20.481a205.514 205.514 0 0 1-64.11 59.016 172.962 172.962 0 0 0-17.488 9.142 207.398 207.398 0 0 1-6.693 2.951"/>
    <path fill="#5388f1" transform="translate(-850 -359)" d="M1064.765 429.688a174.05 174.05 0 0 0-30.191-15.026 205.649 205.649 0 0 1-52.114-54.922c26.037 1.362 50.863 7.168 73.63 16.641a161.32 161.32 0 0 0 29.151 17.913l-5.3 11.128-15.176 24.266"/>
</svg>
