<svg xmlns="http://www.w3.org/2000/svg" viewBox="0 0 45 44">
  <path fill="#7fb4f8" fill-rule="evenodd" d="M4.9 17.1h12.3V4.9H32v9.8h5V0H13.8L0 13.7V44h22.2v-4.9H4.9v-22zm7.4-8.8v3.9H8.4l3.9-3.9z" clip-rule="evenodd"/>
  <path fill="#5388f1" fill-rule="evenodd" d="M36 32.5c-5 0-9 4.2-9 9.6V44h18v-1.9c0-5.4-4-9.6-9-9.6zm-5 7.7c.6-2.3 2.7-3.8 5-3.8s4.4 1.6 5 3.8H31zm10.4-13.4c-.2-2.9-2.7-5.2-5.6-5.1-2.9.1-5.2 2.6-5.2 5.5.1 2.9 2.5 5.3 5.4 5.3 1.5 0 2.9-.6 3.9-1.7s1.6-2.6 1.5-4z" clip-rule="evenodd"/>
</svg>
