<svg xmlns="http://www.w3.org/2000/svg" viewBox="0 0 41 54">
  <path fill="#80b5f8" fill-rule="evenodd" d="M7.7 30.9l-2.1 3.6-2.1-3.6c-2.1.8-3.5 2.9-3.5 5.2v5.4c0 1.9.9 3.6 2.5 4.6l.8 6.5c0 .4.2.8.4 1 .3.3.7.4 1.1.4h1.7c.8 0 1.5-.6 1.5-1.5l.8-6.5c1.6-1 2.5-2.8 2.5-4.6V36c-.1-2.2-1.5-4.3-3.6-5.1zM5.6 21c2.5 0 4.4 2 4.4 4.5s-2 4.4-4.5 4.4-4.5-2-4.5-4.4C1.2 23 3.2 21 5.6 21zm17.3 9.9l-2.1 3.6-2.1-3.6c-2.1.8-3.5 2.9-3.6 5.2v5.4c0 1.9.9 3.6 2.5 4.6l.8 6.5c0 .4.2.8.4 1 .3.3.7.4 1 .4h1.7c.8 0 1.5-.7 1.5-1.5l.8-6.5c1.6-1 2.5-2.8 2.5-4.6V36c.1-2.2-1.3-4.3-3.4-5.1zM20.8 21c2.5 0 4.4 2 4.4 4.5s-2 4.4-4.5 4.4-4.5-2-4.5-4.4c.1-2.5 2.1-4.5 4.6-4.5zm16.6 9.9l-2.1 3.6-2.1-3.6c-2.1.8-3.5 2.9-3.6 5.2v5.4c0 1.9.9 3.6 2.5 4.6l.8 6.5c0 .4.2.8.4 1 .3.3.7.4 1 .4H36c.8 0 1.5-.7 1.5-1.5l.8-6.5c1.6-1 2.5-2.8 2.5-4.6V36c.2-2.2-1.2-4.3-3.4-5.1zm-2-9.9c2.5 0 4.4 2 4.4 4.5s-2 4.4-4.5 4.4-4.4-2-4.5-4.4c.1-2.5 2.1-4.5 4.6-4.5z" clip-rule="evenodd"/>
  <path fill="#5388f1" fill-rule="evenodd" d="M20.5 0c1.8 0 3.4 1 4.1 2.7.7 1.7.3 3.6-.9 4.8s-3.2 1.7-4.8 1-2.7-2.3-2.7-4.1c0-1.2.5-2.3 1.3-3.1.7-.8 1.8-1.3 3-1.3zm-7.1 9.2c1.8 0 3.4 1 4.1 2.7.7 1.7.3 3.6-.9 4.8s-3.2 1.7-4.8 1S9 15.4 9 13.6c0-1.2.4-2.3 1.3-3.1.8-.9 1.9-1.3 3.1-1.3zm14.2 0c1.8 0 3.4 1 4.1 2.7.7 1.7.3 3.6-.9 4.8-1.3 1.3-3.2 1.7-4.8 1s-2.7-2.3-2.7-4.1c-.1-2.5 1.9-4.4 4.3-4.4z" clip-rule="evenodd"/>
</svg>
